<svg id="Layer_1" data-name="Layer 1" xmlns="http://www.w3.org/2000/svg" xmlns:xlink="http://www.w3.org/1999/xlink" viewBox="0 0 600 450"><defs><style>.cls-1{fill:#3dba85;}.cls-2{fill:#359366;}.cls-3{fill:#4c9aff;}.cls-10,.cls-4{fill:#e6e6e6;}.cls-4{opacity:0.25;}.cls-5,.cls-6{opacity:0.15;}.cls-5{fill:url(#linear-gradient);}.cls-6{fill:url(#linear-gradient-2);}.cls-20,.cls-7{fill:none;}.cls-8{fill:#999;}.cls-9{fill:#ccc;}.cls-11{fill:#298def;}.cls-12{fill:#F99316;}.cls-13,.cls-19{opacity:0.5;}.cls-13{fill:url(#linear-gradient-3);}.cls-14{fill:#0562e8;}.cls-15{fill:#d1d3d4;}.cls-16{fill:#939598;}.cls-17{fill:#b3b3b3;}.cls-18{fill:#f2f2f2;}.cls-19{fill:#333;}.cls-20{stroke:#999;stroke-linecap:round;stroke-miterlimit:10;stroke-width:1.16px;stroke-dasharray:3.49 3.49;}.cls-21{fill:#fff;}.cls-22{fill:#d67d1d;}</style><linearGradient id="linear-gradient" x1="-97.65" y1="228.25" x2="283.03" y2="224.03" gradientUnits="userSpaceOnUse"><stop offset="0" stop-color="#d1d3d4" stop-opacity="0"/><stop offset="1" stop-color="#bcbec0"/></linearGradient><linearGradient id="linear-gradient-2" x1="236.1" y1="225" x2="572.11" y2="225" xlink:href="#linear-gradient"/><linearGradient id="linear-gradient-3" x1="355.41" y1="150.24" x2="498.21" y2="150.24" xlink:href="#linear-gradient"/></defs><title>big-data-consulting-services-Illustration</title><polygon class="cls-1" points="174.06 128.27 172 128.27 171.35 121.71 171.79 119.06 174.28 119.06 174.71 121.71 174.06 128.27"/><polygon class="cls-1" points="172 135.9 174.06 135.9 174.71 142.46 174.28 145.11 171.79 145.11 171.35 142.46 172 135.9"/><polygon class="cls-1" points="176.85 133.11 176.85 131.06 183.41 130.4 186.06 130.84 186.06 133.33 183.41 133.76 176.85 133.11"/><polygon class="cls-1" points="169.22 131.06 169.22 133.11 162.66 133.76 160.01 133.33 160.01 130.84 162.66 130.4 169.22 131.06"/><path class="cls-1" d="M162.09,282.53a1.51,1.51,0,0,1,1.19,1.76l-.55,2.9a12.19,12.19,0,0,0-13.85,9.16l-2.61-.5a1.51,1.51,0,0,1-1.19-1.76,14.58,14.58,0,0,1,17-11.56Z"/><path class="cls-2" d="M162.73,287.19l-1.89,9.91a1.51,1.51,0,0,1-1.76,1.19l-10.2-1.94a12.19,12.19,0,0,1,13.85-9.16Z"/><circle class="cls-3" cx="538.75" cy="119.06" r="7.87"/><circle class="cls-4" cx="352.36" cy="65.1" r="12.52"/><path class="cls-5" d="M360.58,234.25,203.89,415.54a10.26,10.26,0,0,1-16,0L31.21,234.25a14.56,14.56,0,0,1,0-18.5L187.9,34.46a10.26,10.26,0,0,1,16,0L360.58,215.75A14.56,14.56,0,0,1,360.58,234.25Z"/><path class="cls-6" d="M568.79,234.25,412.1,415.54a10.26,10.26,0,0,1-16,0L239.42,234.25a14.56,14.56,0,0,1,0-18.5L396.11,34.46a10.26,10.26,0,0,1,16,0L568.79,215.75A14.56,14.56,0,0,1,568.79,234.25Z"/><path class="cls-7" d="M250,88l-.18.68Z"/><path class="cls-7" d="M243,101.5l.32-.4.39-.48C243.49,100.92,243.25,101.21,243,101.5Z"/><path class="cls-7" d="M242.69,101.89c-.35.41-.71.82-1.09,1.22C242,102.71,242.34,102.3,242.69,101.89Z"/><path class="cls-7" d="M170.6,75.79c-.07.53-.13,1.06-.17,1.59C170.47,76.85,170.53,76.32,170.6,75.79Z"/><path class="cls-7" d="M171,73.27c-.13.61-.24,1.22-.33,1.84C170.78,74.49,170.89,73.88,171,73.27Z"/><path class="cls-7" d="M245.47,98.16l.09-.14c-.16.25-.33.5-.5.74Z"/><path class="cls-7" d="M244.1,100.12c.17-.23.35-.46.51-.7l.06-.08v0Z"/><path class="cls-7" d="M248.21,93.06c0,.11-.08.22-.13.33C248.13,93.28,248.17,93.17,248.21,93.06Z"/><path class="cls-7" d="M247.18,95.24c-.09.15-.17.31-.25.46C247,95.55,247.09,95.39,247.18,95.24Z"/><path class="cls-7" d="M247.79,94l-.26.54Z"/><path class="cls-7" d="M170.38,78.05c0,.74-.08,1.48-.07,2.22C170.3,79.53,170.33,78.79,170.38,78.05Z"/><path class="cls-7" d="M246.77,96l-.18.32Z"/><path class="cls-7" d="M246.1,97.15l-.27.44Z"/><path class="cls-7" d="M249.72,89l0,.08Z"/><path class="cls-7" d="M248.6,92.16c-.06.14-.12.27-.17.41C248.48,92.43,248.54,92.3,248.6,92.16Z"/><path class="cls-7" d="M249.33,90.2c0-.16.09-.32.14-.48-.06.2-.12.4-.19.59A1.17,1.17,0,0,0,249.33,90.2Z"/><path class="cls-7" d="M249.07,90.91c-.06.18-.13.36-.2.53C248.94,91.27,249,91.09,249.07,90.91Z"/><polygon class="cls-8" points="211.65 79.3 194.68 46.37 193.18 53.18 209.73 80.27 209.04 84.23 210.1 86.3 210.16 86.34 211.46 81.22 238.47 107.81 238.25 108.67 240.06 110.11 241.6 103.11 211.65 79.3"/><path class="cls-9" d="M250,88l-.18.68a2,2,0,0,0-.07.26l0,.08c-.07.23-.14.46-.22.69s-.09.32-.14.48L247.83,97l.21-.64c.06-.2.13-.41.19-.62.19-.67.37-1.35.52-2l1.54-7c0,.1,0,.2-.07.3C250.14,87.35,250.06,87.68,250,88Z"/><path class="cls-9" d="M249.28,90.31c-.06.21-.14.4-.21.6s-.13.36-.2.53-.17.48-.27.72-.12.27-.17.41-.14.33-.22.49-.08.22-.13.33-.19.41-.29.61l-.26.54c-.12.24-.23.47-.35.7s-.17.31-.25.46-.11.2-.16.3l-.18.32-.49.83-.27.44-.27.43-.09.14-1.53,7,.22-.33c.19-.3.37-.6.55-.9s.42-.72.61-1.08.33-.62.49-.93.37-.73.54-1.1.29-.64.43-1,.31-.75.46-1.13l.36-1c.08-.23.15-.46.23-.69l1.5-6.81A1.17,1.17,0,0,1,249.28,90.31Z"/><path class="cls-9" d="M245.06,98.76c-.12.19-.25.38-.38.56v0l-.06.08c-.16.24-.34.47-.51.7s-.25.33-.38.5l-.39.48-.32.4-.32.39c-.35.41-.71.82-1.09,1.22l-1.54,7c.49-.53.95-1.07,1.41-1.61.11-.14.22-.27.32-.41.44-.54.87-1.1,1.28-1.67l.06-.09c.28-.4.55-.81.81-1.22l1.53-7Z"/><path class="cls-10" d="M241.6,103.11c.38-.4.74-.81,1.09-1.22l.32-.39c.24-.29.48-.58.71-.88s.25-.34.38-.5l.58-.8c.13-.18.26-.37.38-.56s.34-.49.5-.74l.27-.43.27-.44.49-.83.18-.32c0-.1.1-.2.16-.3s.16-.31.25-.46.23-.46.35-.7l.26-.54c.1-.2.19-.41.29-.61s.09-.22.13-.33.15-.32.22-.49.11-.27.17-.41.18-.48.27-.72.14-.35.2-.53.15-.39.21-.6.13-.39.19-.59.15-.46.22-.69l0-.08a2,2,0,0,1,.07-.26L250,88c.09-.33.17-.66.25-1a34.41,34.41,0,0,0,.86-7.72c-.11-20-18-36.39-39.63-36.39a42.23,42.23,0,0,0-16.77,3.46l17,32.93Z"/><path class="cls-11" d="M232.24,88.06c.19-.2.37-.41.54-.61l.16-.2.36-.44.19-.25.29-.4.19-.27c.08-.13.17-.25.25-.37s.09-.15.13-.22a2.53,2.53,0,0,0,.13-.22l.25-.41.09-.17.08-.15.12-.23.18-.34c.05-.09.09-.19.13-.28l.15-.3.06-.16c0-.09.07-.17.11-.25l.09-.21c0-.11.09-.23.13-.35s.07-.18.1-.27l.11-.3.09-.3a3.38,3.38,0,0,0,.11-.34l0,0,0-.13.09-.34c0-.17.09-.33.12-.5a16.59,16.59,0,0,0,.43-3.85c-.05-10-9-18.2-19.81-18.2a21.2,21.2,0,0,0-8.38,1.73l8.48,16.47Z"/><path class="cls-9" d="M212.16,117.54a44.46,44.46,0,0,1-5.16-.25l-1.93,7.55a44.46,44.46,0,0,0,5.16.25,41,41,0,0,0,26.31-9.73l1.71-6.69.22-.86A41.1,41.1,0,0,1,212.16,117.54Z"/><polygon class="cls-8" points="211.46 81.22 210.16 86.34 209.53 88.78 205.07 124.84 207 117.29 211.46 81.22"/><path class="cls-10" d="M207,117.29a44.46,44.46,0,0,0,5.16.25,41.1,41.1,0,0,0,26.31-9.73l-27-26.59Z"/><path class="cls-12" d="M213.11,109.72a19.47,19.47,0,0,0,14.67-4.42L215.19,92.91Z"/><path class="cls-9" d="M170.31,80.27c0-.74,0-1.48.07-2.22,0-.22,0-.44.05-.67,0-.53.1-1.06.17-1.59,0-.22.05-.45.09-.68.09-.62.2-1.23.33-1.84l.06-.33a.19.19,0,0,0,0-.08l-1.54,7a33.24,33.24,0,0,0-.78,7.41c.09,17.71,14.19,33,33.12,35.9l1.55-7C184.5,113.26,170.41,98,170.31,80.27Z"/><path class="cls-10" d="M193.18,53.18l-2.86-4.67a36.54,36.54,0,0,0-19.24,24.43l-.06.33c-.13.61-.24,1.22-.33,1.84,0,.23-.06.46-.09.68-.07.53-.13,1.06-.17,1.59,0,.23,0,.45-.05.67,0,.74-.08,1.48-.07,2.22.1,17.72,14.19,33,33.13,35.9L209,84.23l.69-4Z"/><path class="cls-1" d="M191.64,67.38,190.17,65a18.74,18.74,0,0,0-9.87,12.54l0,.17c-.07.31-.12.62-.17.94,0,.11,0,.23,0,.35s-.06.54-.08.82l0,.34c0,.38,0,.75,0,1.14,0,9.09,7.29,16.93,17,18.42l2.88-16.39.35-2Z"/><rect class="cls-13" x="355.41" y="73.13" width="142.8" height="154.23" rx="6.56"/><rect class="cls-14" x="359.7" y="90.53" width="111.82" height="3.86" rx="1.93" transform="translate(831.22 184.91) rotate(180)"/><rect class="cls-14" x="375.75" y="98.99" width="56.87" height="3.86" rx="1.93" transform="translate(808.36 201.84) rotate(180)"/><rect class="cls-14" x="436.8" y="98.99" width="56.87" height="3.86" rx="1.93" transform="translate(930.46 201.84) rotate(180)"/><rect class="cls-15" x="365.5" y="107.44" width="56.87" height="3.86" rx="1.93" transform="translate(787.86 218.74) rotate(180)"/><rect class="cls-12" x="433.61" y="168.1" width="56.87" height="3.86" rx="1.93" transform="translate(924.09 340.06) rotate(180)"/><rect class="cls-15" x="426.55" y="107.44" width="56.87" height="3.86" rx="1.93" transform="translate(909.97 218.74) rotate(180)"/><rect class="cls-1" x="365.5" y="116.48" width="80.46" height="3.86" rx="1.93" transform="translate(811.45 236.83) rotate(180)"/><rect class="cls-12" x="451.23" y="116.48" width="32.18" height="3.86" rx="1.93" transform="translate(934.65 236.83) rotate(180)"/><rect class="cls-1" x="449.14" y="125.53" width="32.18" height="3.86" rx="1.93" transform="translate(930.46 254.92) rotate(180)"/><rect class="cls-15" x="429.86" y="134.57" width="32.18" height="3.86" rx="1.93" transform="translate(891.91 273.01) rotate(-180)"/><rect class="cls-15" x="455.43" y="142.7" width="32.18" height="3.86" rx="1.93" transform="translate(943.04 289.26) rotate(180)"/><rect class="cls-12" x="431.86" y="150.83" width="32.18" height="3.86" rx="1.93" transform="translate(895.91 305.51) rotate(180)"/><rect class="cls-1" x="431.86" y="158.96" width="32.18" height="3.86" rx="1.93" transform="translate(895.91 321.77) rotate(180)"/><rect class="cls-15" x="433.05" y="177.25" width="32.18" height="3.86" rx="1.93" transform="translate(898.28 358.35) rotate(180)"/><rect class="cls-15" x="468.48" y="177.25" width="21.06" height="3.86" rx="1.93" transform="translate(958.01 358.35) rotate(180)"/><circle class="cls-15" cx="477.37" cy="208.92" r="12.1"/><circle class="cls-14" cx="477.37" cy="208.92" r="7.03"/><rect class="cls-15" x="70.34" y="359.07" width="485.89" height="3.39"/><rect class="cls-16" x="43.77" y="359.07" width="26.58" height="3.39"/><rect class="cls-17" x="354.62" y="141.25" width="57.94" height="48.85" transform="translate(767.18 331.34) rotate(-180)"/><rect class="cls-10" x="182.28" y="141.25" width="172.34" height="48.85" transform="translate(536.9 331.34) rotate(-180)"/><rect class="cls-9" x="320.5" y="145.11" width="10.88" height="10.88" transform="translate(651.89 301.1) rotate(-180)"/><rect class="cls-14" x="301.35" y="145.11" width="10.88" height="10.88" transform="translate(613.59 301.1) rotate(-180)"/><rect class="cls-14" x="282.21" y="145.11" width="10.88" height="10.88" transform="translate(575.29 301.1) rotate(-180)"/><rect class="cls-14" x="263.06" y="145.11" width="10.88" height="10.88" transform="translate(537 301.1) rotate(-180)"/><rect class="cls-9" x="243.91" y="145.11" width="10.88" height="10.88" transform="translate(498.7 301.1) rotate(-180)"/><rect class="cls-1" x="224.76" y="145.11" width="10.88" height="10.88" transform="translate(460.4 301.1) rotate(-180)"/><rect class="cls-9" x="205.61" y="145.11" width="10.88" height="10.88" transform="translate(422.11 301.1) rotate(-180)"/><rect class="cls-11" x="186.46" y="145.11" width="10.88" height="10.88" transform="translate(383.81 301.1) rotate(-180)"/><rect class="cls-12" x="320.5" y="160.23" width="10.88" height="10.88" transform="translate(651.89 331.34) rotate(-180)"/><rect class="cls-11" x="301.35" y="160.23" width="10.88" height="10.88" transform="translate(613.59 331.34) rotate(-180)"/><rect class="cls-11" x="282.21" y="160.23" width="10.88" height="10.88" transform="translate(575.29 331.34) rotate(-180)"/><rect class="cls-14" x="263.06" y="160.23" width="10.88" height="10.88" transform="translate(537 331.34) rotate(-180)"/><rect class="cls-11" x="243.91" y="160.23" width="10.88" height="10.88" transform="translate(498.7 331.34) rotate(-180)"/><rect class="cls-1" x="224.76" y="160.23" width="10.88" height="10.88" transform="translate(460.4 331.34) rotate(-180)"/><rect class="cls-1" x="205.61" y="160.23" width="10.88" height="10.88" transform="translate(422.11 331.34) rotate(-180)"/><rect class="cls-1" x="186.46" y="160.23" width="10.88" height="10.88" transform="translate(383.81 331.34) rotate(-180)"/><rect class="cls-12" x="320.5" y="175.34" width="10.88" height="10.88" transform="translate(651.89 361.57) rotate(-180)"/><rect class="cls-9" x="339.55" y="145.11" width="10.88" height="10.88" transform="translate(689.98 301.1) rotate(-180)"/><rect class="cls-9" x="339.55" y="160.23" width="10.88" height="10.88" transform="translate(689.98 331.34) rotate(-180)"/><rect class="cls-12" x="339.55" y="175.34" width="10.88" height="10.88" transform="translate(689.98 361.57) rotate(-180)"/><rect class="cls-11" x="301.35" y="175.34" width="10.88" height="10.88" transform="translate(613.59 361.57) rotate(-180)"/><rect class="cls-9" x="282.21" y="175.34" width="10.88" height="10.88" transform="translate(575.29 361.57) rotate(-180)"/><rect class="cls-14" x="263.06" y="175.34" width="10.88" height="10.88" transform="translate(537 361.57) rotate(-180)"/><rect class="cls-9" x="243.91" y="175.34" width="10.88" height="10.88" transform="translate(498.7 361.57) rotate(-180)"/><rect class="cls-11" x="224.76" y="175.34" width="10.88" height="10.88" transform="translate(460.4 361.57) rotate(-180)"/><rect class="cls-1" x="205.61" y="175.34" width="10.88" height="10.88" transform="translate(422.11 361.57) rotate(-180)"/><rect class="cls-9" x="186.46" y="175.34" width="10.88" height="10.88" transform="translate(383.81 361.57) rotate(-180)"/><polygon class="cls-9" points="362.98 156.52 407.02 156.52 404.9 150.55 360.86 150.55 362.98 156.52"/><polygon class="cls-9" points="362.98 168.65 407.02 168.65 404.9 162.69 360.86 162.69 362.98 168.65"/><polygon class="cls-9" points="362.98 180.79 407.02 180.79 404.9 174.82 360.86 174.82 362.98 180.79"/><rect class="cls-17" x="354.62" y="197.28" width="57.94" height="48.85" transform="translate(767.18 443.41) rotate(-180)"/><rect class="cls-10" x="182.28" y="197.28" width="172.34" height="48.85" transform="translate(536.9 443.41) rotate(-180)"/><rect class="cls-9" x="205.51" y="231.38" width="10.88" height="10.88"/><rect class="cls-9" x="224.66" y="231.38" width="10.88" height="10.88"/><rect class="cls-9" x="243.81" y="231.38" width="10.88" height="10.88"/><rect class="cls-9" x="262.96" y="231.38" width="10.88" height="10.88"/><rect class="cls-9" x="282.1" y="231.38" width="10.88" height="10.88"/><rect class="cls-9" x="301.25" y="231.38" width="10.88" height="10.88"/><rect class="cls-9" x="320.4" y="231.38" width="10.88" height="10.88"/><rect class="cls-11" x="339.55" y="231.38" width="10.88" height="10.88"/><rect class="cls-9" x="205.51" y="216.26" width="10.88" height="10.88"/><rect class="cls-11" x="224.66" y="216.26" width="10.88" height="10.88"/><rect class="cls-9" x="243.81" y="216.26" width="10.88" height="10.88"/><rect class="cls-14" x="262.96" y="216.26" width="10.88" height="10.88"/><rect class="cls-9" x="282.1" y="216.26" width="10.88" height="10.88"/><rect class="cls-9" x="301.25" y="216.26" width="10.88" height="10.88"/><rect class="cls-9" x="320.4" y="216.26" width="10.88" height="10.88"/><rect class="cls-1" x="339.55" y="216.26" width="10.88" height="10.88"/><rect class="cls-12" x="205.51" y="201.14" width="10.88" height="10.88"/><rect class="cls-9" x="186.46" y="231.38" width="10.88" height="10.88"/><rect class="cls-9" x="186.46" y="216.26" width="10.88" height="10.88"/><rect class="cls-12" x="186.46" y="201.14" width="10.88" height="10.88"/><rect class="cls-11" x="224.66" y="201.14" width="10.88" height="10.88"/><rect class="cls-9" x="243.81" y="201.14" width="10.88" height="10.88"/><rect class="cls-14" x="262.96" y="201.14" width="10.88" height="10.88"/><rect class="cls-9" x="282.1" y="201.14" width="10.88" height="10.88"/><rect class="cls-11" x="301.25" y="201.14" width="10.88" height="10.88"/><rect class="cls-1" x="320.4" y="201.14" width="10.88" height="10.88"/><rect class="cls-9" x="339.55" y="201.14" width="10.88" height="10.88"/><polygon class="cls-9" points="362.98 212.56 407.02 212.56 404.9 206.59 360.86 206.59 362.98 212.56"/><polygon class="cls-9" points="362.98 224.69 407.02 224.69 404.9 218.72 360.86 218.72 362.98 224.69"/><polygon class="cls-9" points="362.98 236.82 407.02 236.82 404.9 230.85 360.86 230.85 362.98 236.82"/><rect class="cls-17" x="354.62" y="253.32" width="57.94" height="48.85" transform="translate(767.18 555.48) rotate(-180)"/><rect class="cls-10" x="182.28" y="253.32" width="172.34" height="48.85" transform="translate(536.9 555.48) rotate(-180)"/><rect class="cls-9" x="320.5" y="287.41" width="10.88" height="10.88" transform="translate(651.89 585.71) rotate(-180)"/><rect class="cls-9" x="301.35" y="287.41" width="10.88" height="10.88" transform="translate(613.59 585.71) rotate(-180)"/><rect class="cls-9" x="282.21" y="287.41" width="10.88" height="10.88" transform="translate(575.29 585.71) rotate(-180)"/><rect class="cls-9" x="263.06" y="287.41" width="10.88" height="10.88" transform="translate(537 585.71) rotate(-180)"/><rect class="cls-9" x="243.91" y="287.41" width="10.88" height="10.88" transform="translate(498.7 585.71) rotate(-180)"/><rect class="cls-1" x="224.76" y="287.41" width="10.88" height="10.88" transform="translate(460.4 585.71) rotate(-180)"/><rect class="cls-9" x="205.61" y="287.41" width="10.88" height="10.88" transform="translate(422.11 585.71) rotate(-180)"/><rect class="cls-11" x="186.46" y="287.41" width="10.88" height="10.88" transform="translate(383.81 585.71) rotate(-180)"/><rect class="cls-9" x="320.5" y="272.3" width="10.88" height="10.88" transform="translate(651.89 555.48) rotate(-180)"/><rect class="cls-9" x="301.35" y="272.3" width="10.88" height="10.88" transform="translate(613.59 555.48) rotate(-180)"/><rect class="cls-11" x="282.21" y="272.3" width="10.88" height="10.88" transform="translate(575.29 555.48) rotate(-180)"/><rect class="cls-14" x="263.06" y="272.3" width="10.88" height="10.88" transform="translate(537 555.48) rotate(-180)"/><rect class="cls-9" x="243.91" y="272.3" width="10.88" height="10.88" transform="translate(498.7 555.48) rotate(-180)"/><rect class="cls-9" x="224.76" y="272.3" width="10.88" height="10.88" transform="translate(460.4 555.48) rotate(-180)"/><rect class="cls-9" x="205.61" y="272.3" width="10.88" height="10.88" transform="translate(422.11 555.48) rotate(-180)"/><rect class="cls-1" x="186.46" y="272.3" width="10.88" height="10.88" transform="translate(383.81 555.48) rotate(-180)"/><rect class="cls-9" x="320.5" y="257.18" width="10.88" height="10.88" transform="translate(651.89 525.24) rotate(-180)"/><rect class="cls-9" x="339.55" y="287.41" width="10.88" height="10.88" transform="translate(689.98 585.71) rotate(-180)"/><rect class="cls-9" x="339.55" y="272.3" width="10.88" height="10.88" transform="translate(689.98 555.48) rotate(-180)"/><rect class="cls-12" x="339.55" y="257.18" width="10.88" height="10.88" transform="translate(689.98 525.24) rotate(-180)"/><rect class="cls-9" x="301.35" y="257.18" width="10.88" height="10.88" transform="translate(613.59 525.24) rotate(-180)"/><rect class="cls-9" x="282.21" y="257.18" width="10.88" height="10.88" transform="translate(575.29 525.24) rotate(-180)"/><rect class="cls-14" x="263.06" y="257.18" width="10.88" height="10.88" transform="translate(537 525.24) rotate(-180)"/><rect class="cls-9" x="243.91" y="257.18" width="10.88" height="10.88" transform="translate(498.7 525.24) rotate(-180)"/><rect class="cls-9" x="224.76" y="257.18" width="10.88" height="10.88" transform="translate(460.4 525.24) rotate(-180)"/><rect class="cls-9" x="205.61" y="257.18" width="10.88" height="10.88" transform="translate(422.11 525.24) rotate(-180)"/><rect class="cls-9" x="186.46" y="257.18" width="10.88" height="10.88" transform="translate(383.81 525.24) rotate(-180)"/><polygon class="cls-9" points="362.98 268.59 407.02 268.59 404.9 262.62 360.86 262.62 362.98 268.59"/><polygon class="cls-9" points="362.98 280.72 407.02 280.72 404.9 274.75 360.86 274.75 362.98 280.72"/><polygon class="cls-9" points="362.98 292.86 407.02 292.86 404.9 286.89 360.86 286.89 362.98 292.86"/><rect class="cls-17" x="354.62" y="309.35" width="57.94" height="48.85" transform="translate(767.18 667.54) rotate(-180)"/><rect class="cls-10" x="182.28" y="309.35" width="172.34" height="48.85" transform="translate(536.9 667.54) rotate(-180)"/><polygon class="cls-9" points="362.98 324.62 407.02 324.62 404.9 318.65 360.86 318.65 362.98 324.62"/><polygon class="cls-9" points="362.98 336.76 407.02 336.76 404.9 330.79 360.86 330.79 362.98 336.76"/><rect class="cls-9" x="205.51" y="313.21" width="10.88" height="10.88"/><rect class="cls-14" x="224.66" y="313.21" width="10.88" height="10.88"/><rect class="cls-9" x="243.81" y="313.21" width="10.88" height="10.88"/><rect class="cls-14" x="262.96" y="313.21" width="10.88" height="10.88"/><rect class="cls-9" x="282.1" y="313.21" width="10.88" height="10.88"/><rect class="cls-9" x="301.25" y="313.21" width="10.88" height="10.88"/><rect class="cls-9" x="320.4" y="313.21" width="10.88" height="10.88"/><rect class="cls-11" x="339.55" y="313.21" width="10.88" height="10.88"/><rect class="cls-12" x="205.51" y="328.33" width="10.88" height="10.88"/><rect class="cls-11" x="224.66" y="328.33" width="10.88" height="10.88"/><rect class="cls-9" x="243.81" y="328.33" width="10.88" height="10.88"/><rect class="cls-9" x="262.96" y="328.33" width="10.88" height="10.88"/><rect class="cls-9" x="282.1" y="328.33" width="10.88" height="10.88"/><rect class="cls-9" x="301.25" y="328.33" width="10.88" height="10.88"/><rect class="cls-9" x="320.4" y="328.33" width="10.88" height="10.88"/><rect class="cls-1" x="339.55" y="328.33" width="10.88" height="10.88"/><rect class="cls-12" x="205.51" y="343.45" width="10.88" height="10.88"/><rect class="cls-9" x="186.46" y="313.21" width="10.88" height="10.88"/><rect class="cls-9" x="186.46" y="328.33" width="10.88" height="10.88"/><rect class="cls-12" x="186.46" y="343.45" width="10.88" height="10.88"/><rect class="cls-11" x="224.66" y="343.45" width="10.88" height="10.88"/><rect class="cls-9" x="243.81" y="343.45" width="10.88" height="10.88"/><rect class="cls-14" x="262.96" y="343.45" width="10.88" height="10.88"/><rect class="cls-9" x="282.1" y="343.45" width="10.88" height="10.88"/><rect class="cls-9" x="301.25" y="343.45" width="10.88" height="10.88"/><rect class="cls-1" x="320.4" y="343.45" width="10.88" height="10.88"/><rect class="cls-9" x="339.55" y="343.45" width="10.88" height="10.88"/><polygon class="cls-9" points="362.98 348.89 407.02 348.89 404.9 342.92 360.86 342.92 362.98 348.89"/><path class="cls-9" d="M516.32,303.79c0,3.42-14.53,6.2-32.46,6.2s-32.48-2.78-32.48-6.2,14.54-6.2,32.48-6.2S516.32,300.37,516.32,303.79Z"/><path class="cls-18" d="M516.32,303.79v46c0,3.42-14.53,6.2-32.46,6.2s-32.48-2.78-32.48-6.2v-46c0,3.42,14.54,6.2,32.48,6.2S516.32,307.21,516.32,303.79Z"/><path class="cls-9" d="M516.32,307.22v11.37c0,3.42-14.53,6.2-32.46,6.2s-32.48-2.78-32.48-6.2V307.22c0,3.42,14.54,6.2,32.48,6.2S516.32,310.64,516.32,307.22Z"/><path class="cls-9" d="M516.32,323.13V334.5c0,3.42-14.53,6.2-32.46,6.2s-32.48-2.78-32.48-6.2V323.13c0,3.43,14.54,6.2,32.48,6.2S516.32,326.56,516.32,323.13Z"/><path class="cls-9" d="M516.32,339v11.37c0,3.42-14.53,6.2-32.46,6.2s-32.48-2.78-32.48-6.2V339c0,3.43,14.54,6.2,32.48,6.2S516.32,342.47,516.32,339Z"/><ellipse class="cls-18" cx="512.16" cy="316" rx="4.43" ry="2.67" transform="translate(70.8 725.11) rotate(-74.5)"/><ellipse class="cls-12" cx="512.16" cy="316" rx="2.05" ry="1.24" transform="translate(70.8 725.11) rotate(-74.5)"/><ellipse class="cls-18" cx="512.16" cy="331.91" rx="4.43" ry="2.67" transform="translate(55.47 736.77) rotate(-74.5)"/><ellipse class="cls-18" cx="512.16" cy="347.83" rx="4.43" ry="2.67" transform="translate(40.13 748.43) rotate(-74.5)"/><path class="cls-18" d="M501.39,349.53v1.87a.64.64,0,0,1-.57.65,153,153,0,0,1-15.58.76c-11.94,0-22.38-1.23-28-3.06a.66.66,0,0,1-.44-.62v-1.81a.65.65,0,0,1,.85-.62c5.73,1.76,16,2.93,27.61,2.93a153.92,153.92,0,0,0,15.45-.74A.64.64,0,0,1,501.39,349.53Z"/><ellipse class="cls-1" cx="512.16" cy="331.91" rx="2.05" ry="1.24" transform="translate(55.47 736.77) rotate(-74.5)"/><ellipse class="cls-11" cx="512.16" cy="347.83" rx="2.05" ry="1.24" transform="translate(40.13 748.43) rotate(-74.5)"/><path class="cls-18" d="M501.39,333.56v1.88a.63.63,0,0,1-.57.64,150.2,150.2,0,0,1-15.58.76c-11.94,0-22.38-1.23-28-3.06a.66.66,0,0,1-.44-.62v-1.81a.65.65,0,0,1,.85-.62c5.73,1.76,16,2.94,27.61,2.94a153.74,153.74,0,0,0,15.45-.75A.64.64,0,0,1,501.39,333.56Z"/><path class="cls-18" d="M501.39,317.6v1.87a.63.63,0,0,1-.57.64,150.2,150.2,0,0,1-15.58.76c-11.94,0-22.38-1.23-28-3.06a.66.66,0,0,1-.44-.62v-1.81a.65.65,0,0,1,.85-.62c5.73,1.76,16,2.94,27.61,2.94a150.83,150.83,0,0,0,15.45-.75A.64.64,0,0,1,501.39,317.6Z"/><path class="cls-9" d="M142.39,303.79c0,3.42-14.53,6.2-32.46,6.2s-32.48-2.78-32.48-6.2,14.54-6.2,32.48-6.2S142.39,300.37,142.39,303.79Z"/><path class="cls-18" d="M142.39,303.79v46c0,3.42-14.53,6.2-32.46,6.2s-32.48-2.78-32.48-6.2v-46c0,3.42,14.54,6.2,32.48,6.2S142.39,307.21,142.39,303.79Z"/><path class="cls-9" d="M142.39,307.22v11.37c0,3.42-14.53,6.2-32.46,6.2s-32.48-2.78-32.48-6.2V307.22c0,3.42,14.54,6.2,32.48,6.2S142.39,310.64,142.39,307.22Z"/><path class="cls-9" d="M142.39,323.13V334.5c0,3.42-14.53,6.2-32.46,6.2s-32.48-2.78-32.48-6.2V323.13c0,3.43,14.54,6.2,32.48,6.2S142.39,326.56,142.39,323.13Z"/><path class="cls-9" d="M142.39,339v11.37c0,3.42-14.53,6.2-32.46,6.2s-32.48-2.78-32.48-6.2V339c0,3.43,14.54,6.2,32.48,6.2S142.39,342.47,142.39,339Z"/><ellipse class="cls-18" cx="138.23" cy="316" rx="4.43" ry="2.67" transform="translate(-203.22 364.77) rotate(-74.5)"/><ellipse class="cls-12" cx="138.23" cy="316" rx="2.05" ry="1.24" transform="translate(-203.22 364.77) rotate(-74.5)"/><ellipse class="cls-18" cx="138.23" cy="331.91" rx="4.43" ry="2.67" transform="translate(-218.55 376.43) rotate(-74.5)"/><ellipse class="cls-18" cx="138.23" cy="347.83" rx="4.43" ry="2.67" transform="translate(-233.88 388.09) rotate(-74.5)"/><path class="cls-18" d="M127.46,349.53v1.87a.64.64,0,0,1-.57.65,153,153,0,0,1-15.58.76c-11.94,0-22.38-1.23-28-3.06a.66.66,0,0,1-.44-.62v-1.81a.65.65,0,0,1,.85-.62c5.73,1.76,16,2.93,27.61,2.93a153.92,153.92,0,0,0,15.45-.74A.64.64,0,0,1,127.46,349.53Z"/><ellipse class="cls-1" cx="138.23" cy="331.91" rx="2.05" ry="1.24" transform="translate(-218.55 376.43) rotate(-74.5)"/><ellipse class="cls-11" cx="138.23" cy="347.83" rx="2.05" ry="1.24" transform="translate(-233.88 388.09) rotate(-74.5)"/><path class="cls-18" d="M127.46,333.56v1.88a.63.63,0,0,1-.57.64,150.2,150.2,0,0,1-15.58.76c-11.94,0-22.38-1.23-28-3.06a.66.66,0,0,1-.44-.62v-1.81a.65.65,0,0,1,.85-.62c5.73,1.76,16,2.94,27.61,2.94a153.74,153.74,0,0,0,15.45-.75A.64.64,0,0,1,127.46,333.56Z"/><path class="cls-18" d="M127.46,317.6v1.87a.63.63,0,0,1-.57.64,150.2,150.2,0,0,1-15.58.76c-11.94,0-22.38-1.23-28-3.06a.66.66,0,0,1-.44-.62v-1.81a.65.65,0,0,1,.85-.62c5.73,1.76,16,2.94,27.61,2.94a150.83,150.83,0,0,0,15.45-.75A.64.64,0,0,1,127.46,317.6Z"/><path class="cls-9" d="M515,253.7c0,1.78-7.53,3.22-16.83,3.22s-16.84-1.44-16.84-3.22,7.54-3.21,16.84-3.21S515,251.93,515,253.7Z"/><path class="cls-18" d="M515,253.7v23.84c0,1.78-7.53,3.22-16.83,3.22s-16.84-1.44-16.84-3.22V253.7c0,1.78,7.54,3.22,16.84,3.22S515,255.48,515,253.7Z"/><path class="cls-9" d="M515,255.48v5.89c0,1.78-7.53,3.22-16.83,3.22s-16.84-1.44-16.84-3.22v-5.89c0,1.78,7.54,3.22,16.84,3.22S515,257.26,515,255.48Z"/><path class="cls-9" d="M515,263.73v5.89c0,1.78-7.53,3.22-16.83,3.22s-16.84-1.44-16.84-3.22v-5.89c0,1.78,7.54,3.21,16.84,3.21S515,265.51,515,263.73Z"/><path class="cls-9" d="M515,272v5.89c0,1.78-7.53,3.22-16.83,3.22s-16.84-1.44-16.84-3.22V272c0,1.77,7.54,3.21,16.84,3.21S515,273.75,515,272Z"/><ellipse class="cls-18" cx="512.88" cy="260.03" rx="2.3" ry="1.38" transform="translate(125.26 684.79) rotate(-74.5)"/><ellipse class="cls-12" cx="512.88" cy="260.03" rx="1.06" ry="0.64" transform="translate(125.26 684.79) rotate(-74.5)"/><ellipse class="cls-18" cx="512.88" cy="268.28" rx="2.3" ry="1.38" transform="translate(117.31 690.83) rotate(-74.5)"/><ellipse class="cls-18" cx="512.88" cy="276.53" rx="2.3" ry="1.38" transform="translate(109.36 696.88) rotate(-74.5)"/><path class="cls-18" d="M507.3,277.42v1a.33.33,0,0,1-.3.33,78.88,78.88,0,0,1-8.07.4c-6.19,0-11.61-.64-14.53-1.59a.34.34,0,0,1-.23-.32v-.94a.34.34,0,0,1,.44-.32c3,.91,8.27,1.52,14.32,1.52a77.63,77.63,0,0,0,8-.39A.34.34,0,0,1,507.3,277.42Z"/><ellipse class="cls-1" cx="512.88" cy="268.28" rx="1.06" ry="0.64" transform="translate(117.31 690.83) rotate(-74.5)"/><ellipse class="cls-11" cx="512.88" cy="276.53" rx="1.06" ry="0.64" transform="translate(109.36 696.88) rotate(-74.5)"/><path class="cls-18" d="M507.3,269.14v1a.33.33,0,0,1-.3.33,78.88,78.88,0,0,1-8.07.4c-6.19,0-11.61-.64-14.53-1.59a.34.34,0,0,1-.23-.32V268a.34.34,0,0,1,.44-.32c3,.91,8.27,1.52,14.32,1.52a77.63,77.63,0,0,0,8-.39A.34.34,0,0,1,507.3,269.14Z"/><path class="cls-18" d="M507.3,260.86v1a.34.34,0,0,1-.3.34,79.05,79.05,0,0,1-8.07.39c-6.19,0-11.61-.64-14.53-1.59a.32.32,0,0,1-.23-.32v-.94a.34.34,0,0,1,.44-.32c3,.91,8.27,1.52,14.32,1.52,2.9,0,5.62-.14,8-.38A.33.33,0,0,1,507.3,260.86Z"/><path class="cls-9" d="M84.15,240c0,1.78-7.54,3.22-16.84,3.22S50.48,241.81,50.48,240s7.54-3.21,16.83-3.21S84.15,238.26,84.15,240Z"/><path class="cls-18" d="M84.15,240v23.85c0,1.77-7.54,3.21-16.84,3.21s-16.83-1.44-16.83-3.21V240c0,1.78,7.54,3.22,16.83,3.22S84.15,241.81,84.15,240Z"/><path class="cls-9" d="M84.15,241.81v5.9c0,1.77-7.54,3.21-16.84,3.21s-16.83-1.44-16.83-3.21v-5.9c0,1.78,7.54,3.22,16.83,3.22S84.15,243.59,84.15,241.81Z"/><path class="cls-9" d="M84.15,250.06V256c0,1.78-7.54,3.22-16.84,3.22S50.48,257.73,50.48,256v-5.89c0,1.78,7.54,3.22,16.83,3.22S84.15,251.84,84.15,250.06Z"/><path class="cls-9" d="M84.15,258.31v5.89c0,1.78-7.54,3.22-16.84,3.22S50.48,266,50.48,264.2v-5.89c0,1.78,7.54,3.21,16.83,3.21S84.15,260.09,84.15,258.31Z"/><ellipse class="cls-18" cx="81.99" cy="246.37" rx="2.3" ry="1.38" transform="translate(-177.33 259.54) rotate(-74.5)"/><ellipse class="cls-12" cx="81.99" cy="246.37" rx="1.06" ry="0.64" transform="translate(-177.33 259.54) rotate(-74.5)"/><ellipse class="cls-18" cx="81.99" cy="254.62" rx="2.3" ry="1.38" transform="translate(-185.28 265.59) rotate(-74.5)"/><ellipse class="cls-18" cx="81.99" cy="262.86" rx="2.3" ry="1.38" transform="translate(-193.23 271.63) rotate(-74.5)"/><path class="cls-18" d="M76.41,263.75v1a.33.33,0,0,1-.3.33,78.94,78.94,0,0,1-8.08.4c-6.19,0-11.6-.64-14.52-1.59a.32.32,0,0,1-.23-.32v-.94a.33.33,0,0,1,.44-.32c3,.91,8.27,1.52,14.31,1.52,2.9,0,5.63-.14,8-.38A.33.33,0,0,1,76.41,263.75Z"/><ellipse class="cls-1" cx="81.99" cy="254.62" rx="1.06" ry="0.64" transform="translate(-185.28 265.59) rotate(-74.5)"/><ellipse class="cls-11" cx="81.99" cy="262.86" rx="1.06" ry="0.64" transform="translate(-193.23 271.63) rotate(-74.5)"/><path class="cls-18" d="M76.41,255.47v1a.34.34,0,0,1-.3.34,79.11,79.11,0,0,1-8.08.39c-6.19,0-11.6-.64-14.52-1.59a.32.32,0,0,1-.23-.32v-.94a.33.33,0,0,1,.44-.32c3,.91,8.27,1.52,14.31,1.52,2.9,0,5.63-.14,8-.38A.33.33,0,0,1,76.41,255.47Z"/><path class="cls-18" d="M76.41,247.19v1a.34.34,0,0,1-.3.34,79.11,79.11,0,0,1-8.08.39c-6.19,0-11.6-.64-14.52-1.59a.32.32,0,0,1-.23-.32V246a.34.34,0,0,1,.44-.32c3,.91,8.27,1.52,14.31,1.52,2.9,0,5.63-.14,8-.38A.33.33,0,0,1,76.41,247.19Z"/><path class="cls-9" d="M552.08,265c0,1.37-5.8,2.47-13,2.47s-13-1.1-13-2.47,5.8-2.47,13-2.47S552.08,263.59,552.08,265Z"/><path class="cls-18" d="M552.08,265v18.34c0,1.37-5.8,2.48-13,2.48s-13-1.11-13-2.48V265c0,1.37,5.8,2.47,13,2.47S552.08,266.32,552.08,265Z"/><path class="cls-9" d="M552.08,266.32v4.53c0,1.37-5.8,2.48-13,2.48s-13-1.11-13-2.48v-4.53c0,1.37,5.8,2.47,13,2.47S552.08,267.69,552.08,266.32Z"/><path class="cls-9" d="M552.08,272.67v4.53c0,1.37-5.8,2.47-13,2.47s-13-1.1-13-2.47v-4.53c0,1.36,5.8,2.47,13,2.47S552.08,274,552.08,272.67Z"/><path class="cls-9" d="M552.08,279v4.54c0,1.36-5.8,2.47-13,2.47s-13-1.11-13-2.47V279c0,1.37,5.8,2.48,13,2.48S552.08,280.38,552.08,279Z"/><ellipse class="cls-18" cx="550.42" cy="269.82" rx="1.77" ry="1.06" transform="matrix(0.27, -0.96, 0.96, 0.27, 143.34, 728.13)"/><ellipse class="cls-12" cx="550.42" cy="269.82" rx="0.82" ry="0.49" transform="matrix(0.27, -0.96, 0.96, 0.27, 143.34, 728.13)"/><ellipse class="cls-18" cx="550.42" cy="276.17" rx="1.77" ry="1.06" transform="translate(137.22 732.78) rotate(-74.5)"/><ellipse class="cls-18" cx="550.42" cy="282.52" rx="1.77" ry="1.06" transform="matrix(0.27, -0.96, 0.96, 0.27, 131.1, 737.44)"/><path class="cls-18" d="M546.12,283.2v.74a.25.25,0,0,1-.23.26,61.38,61.38,0,0,1-6.21.3,41.21,41.21,0,0,1-11.17-1.22.25.25,0,0,1-.18-.24v-.73a.26.26,0,0,1,.34-.24,42.33,42.33,0,0,0,11,1.17,60.5,60.5,0,0,0,6.16-.3A.25.25,0,0,1,546.12,283.2Z"/><ellipse class="cls-1" cx="550.42" cy="276.17" rx="0.82" ry="0.49" transform="translate(137.22 732.78) rotate(-74.5)"/><ellipse class="cls-11" cx="550.42" cy="282.52" rx="0.82" ry="0.49" transform="translate(131.1 737.44) rotate(-74.5)"/><path class="cls-18" d="M546.12,276.83v.74a.25.25,0,0,1-.23.26,58.43,58.43,0,0,1-6.21.31,41.13,41.13,0,0,1-11.17-1.23.25.25,0,0,1-.18-.24v-.73a.26.26,0,0,1,.34-.24,42.33,42.33,0,0,0,11,1.17,60.5,60.5,0,0,0,6.16-.3A.25.25,0,0,1,546.12,276.83Z"/><path class="cls-18" d="M546.12,270.46v.74a.25.25,0,0,1-.23.26,58.43,58.43,0,0,1-6.21.31,41.13,41.13,0,0,1-11.17-1.23.25.25,0,0,1-.18-.24v-.72a.26.26,0,0,1,.34-.25,42.33,42.33,0,0,0,11,1.17,60.5,60.5,0,0,0,6.16-.3A.26.26,0,0,1,546.12,270.46Z"/><polygon class="cls-10" points="137.89 238.2 137.89 270.8 104.79 270.8 104.79 230.85 130.54 230.85 137.89 238.2"/><polygon class="cls-19" points="129.53 239.22 130.54 230.85 137.89 238.2 129.53 239.22"/><polygon class="cls-9" points="130.54 238.2 130.54 230.85 137.89 238.2 130.54 238.2"/><rect class="cls-12" x="106.78" y="236.21" width="21.41" height="3.29" rx="0.82"/><rect class="cls-12" x="106.78" y="240.9" width="26.32" height="3.29" rx="0.82"/><path class="cls-11" d="M107.6,246H126a.82.82,0,0,1,.82.82h0a.83.83,0,0,1-.82.83H107.6a.83.83,0,0,1-.82-.83h0A.82.82,0,0,1,107.6,246Z"/><path class="cls-11" d="M107.6,249.16h10.59a.82.82,0,0,1,.83.82h0a.83.83,0,0,1-.83.82H107.6a.82.82,0,0,1-.82-.82h0A.82.82,0,0,1,107.6,249.16Z"/><path class="cls-11" d="M107.6,252.32h15.66a.82.82,0,0,1,.82.82h0a.82.82,0,0,1-.82.82H107.6a.82.82,0,0,1-.82-.82h0A.82.82,0,0,1,107.6,252.32Z"/><path class="cls-11" d="M107.6,255.48H126a.82.82,0,0,1,.82.82h0a.82.82,0,0,1-.82.82H107.6a.82.82,0,0,1-.82-.82h0A.82.82,0,0,1,107.6,255.48Z"/><path class="cls-1" d="M107.6,258.64h25.79a.83.83,0,0,1,.83.82h0a.82.82,0,0,1-.83.82H107.6a.82.82,0,0,1-.82-.82h0A.82.82,0,0,1,107.6,258.64Z"/><path class="cls-1" d="M107.6,261.8h21.3a.82.82,0,0,1,.82.82h0a.83.83,0,0,1-.82.83H107.6a.83.83,0,0,1-.82-.83h0A.82.82,0,0,1,107.6,261.8Z"/><path class="cls-1" d="M107.6,265h16.48a.82.82,0,0,1,.82.82h0a.82.82,0,0,1-.82.82H107.6a.82.82,0,0,1-.82-.82h0A.82.82,0,0,1,107.6,265Z"/><polygon class="cls-10" points="83.3 177.89 83.3 214.25 46.38 214.25 46.38 169.69 75.11 169.69 83.3 177.89"/><polygon class="cls-19" points="73.98 179.03 75.11 169.69 83.3 177.89 73.98 179.03"/><polygon class="cls-9" points="75.11 177.89 75.11 169.69 83.3 177.89 75.11 177.89"/><rect class="cls-12" x="48.6" y="175.68" width="23.88" height="3.67" rx="0.92"/><rect class="cls-12" x="48.6" y="180.91" width="29.36" height="3.67" rx="0.92"/><path class="cls-11" d="M49.52,186.58H70.08a.92.92,0,0,1,.92.92h0a.92.92,0,0,1-.92.91H49.52a.92.92,0,0,1-.92-.91h0A.92.92,0,0,1,49.52,186.58Z"/><path class="cls-11" d="M49.52,190.11H61.33a.92.92,0,0,1,.92.91h0a.92.92,0,0,1-.92.92H49.52a.92.92,0,0,1-.92-.92h0A.92.92,0,0,1,49.52,190.11Z"/><path class="cls-11" d="M49.52,193.64H67a.92.92,0,0,1,.92.91h0a.92.92,0,0,1-.92.92H49.52a.92.92,0,0,1-.92-.92h0A.92.92,0,0,1,49.52,193.64Z"/><path class="cls-11" d="M49.52,197.16H70.08a.92.92,0,0,1,.92.92h0a.92.92,0,0,1-.92.91H49.52a.92.92,0,0,1-.92-.91h0A.92.92,0,0,1,49.52,197.16Z"/><path class="cls-1" d="M49.52,200.69H78.29a.92.92,0,0,1,.91.92h0a.91.91,0,0,1-.91.91H49.52a.92.92,0,0,1-.92-.91h0A.92.92,0,0,1,49.52,200.69Z"/><path class="cls-1" d="M49.52,204.22H73.27a.92.92,0,0,1,.92.91h0a.92.92,0,0,1-.92.92H49.52a.92.92,0,0,1-.92-.92h0A.92.92,0,0,1,49.52,204.22Z"/><path class="cls-1" d="M49.52,207.74H67.9a.92.92,0,0,1,.91.92h0a.92.92,0,0,1-.91.92H49.52a.92.92,0,0,1-.92-.92h0A.92.92,0,0,1,49.52,207.74Z"/><polygon class="cls-10" points="129.84 179.45 129.84 197.86 111.15 197.86 111.15 175.3 125.69 175.3 129.84 179.45"/><polygon class="cls-19" points="125.12 180.03 125.69 175.3 129.84 179.45 125.12 180.03"/><polygon class="cls-9" points="125.69 179.45 125.69 175.3 129.84 179.45 125.69 179.45"/><rect class="cls-12" x="112.28" y="178.33" width="12.09" height="1.86" rx="0.46"/><rect class="cls-12" x="112.28" y="180.98" width="14.86" height="1.86" rx="0.46"/><path class="cls-11" d="M112.74,183.85h10.41a.47.47,0,0,1,.47.47h0a.47.47,0,0,1-.47.46H112.74a.46.46,0,0,1-.46-.46h0A.46.46,0,0,1,112.74,183.85Z"/><path class="cls-11" d="M112.74,185.64h6a.47.47,0,0,1,.47.46h0a.47.47,0,0,1-.47.47h-6a.46.46,0,0,1-.46-.47h0A.46.46,0,0,1,112.74,185.64Z"/><path class="cls-11" d="M112.74,187.42h8.84a.46.46,0,0,1,.46.47h0a.46.46,0,0,1-.46.46h-8.84a.46.46,0,0,1-.46-.46h0A.46.46,0,0,1,112.74,187.42Z"/><path class="cls-11" d="M112.74,189.21h10.41a.47.47,0,0,1,.47.46h0a.47.47,0,0,1-.47.47H112.74a.46.46,0,0,1-.46-.47h0A.46.46,0,0,1,112.74,189.21Z"/><path class="cls-1" d="M112.74,191h14.57a.46.46,0,0,1,.46.46h0a.47.47,0,0,1-.46.46H112.74a.46.46,0,0,1-.46-.46h0A.45.45,0,0,1,112.74,191Z"/><path class="cls-1" d="M112.74,192.78h12a.47.47,0,0,1,.46.46h0a.47.47,0,0,1-.46.47h-12a.46.46,0,0,1-.46-.47h0A.46.46,0,0,1,112.74,192.78Z"/><path class="cls-1" d="M112.74,194.57H122a.46.46,0,0,1,.47.46h0a.46.46,0,0,1-.47.46h-9.3a.45.45,0,0,1-.46-.46h0A.45.45,0,0,1,112.74,194.57Z"/><polyline class="cls-20" points="230.21 74.19 251.65 52.75 261.94 52.75"/><polyline class="cls-20" points="221.77 104.14 248.6 104.14 256.46 111.99 272.59 111.99"/><polyline class="cls-20" points="190.02 84.72 163.66 84.72 157.71 78.77 146.43 78.77"/><circle class="cls-21" cx="219.05" cy="104.13" r="1.96"/><circle class="cls-21" cx="227.25" cy="76.59" r="1.96"/><circle class="cls-21" cx="194.68" cy="84.72" r="1.96"/><rect class="cls-17" x="264.83" y="46.37" width="23.99" height="4.29"/><rect class="cls-17" x="264.83" y="52.93" width="41.87" height="4.29"/><rect class="cls-17" x="276.92" y="106.57" width="28.13" height="4.29"/><rect class="cls-17" x="276.92" y="113.13" width="22.32" height="4.29"/><rect class="cls-17" x="115.21" y="79.9" width="28.13" height="4.29" transform="translate(258.55 164.09) rotate(180)"/><rect class="cls-17" x="121.02" y="73.34" width="22.32" height="4.29" transform="translate(264.36 150.97) rotate(180)"/><path class="cls-12" d="M449.3,275.16a1.51,1.51,0,0,1-1.51,1.49l-3,0a12.17,12.17,0,0,0-11.52-11.95l0-2.66a1.5,1.5,0,0,1,1.51-1.49,14.58,14.58,0,0,1,14.46,14.63Z"/><path class="cls-22" d="M444.83,276.63l-10.09-.06a1.5,1.5,0,0,1-1.49-1.5l.06-10.39a12.17,12.17,0,0,1,11.52,11.95Z"/></svg>